<?xml version="1.0" encoding="UTF-8" standalone="no"?>
<!-- Created with Inkscape (http://www.inkscape.org/) -->

<svg
   xmlns:dc="http://purl.org/dc/elements/1.1/"
   xmlns:cc="http://creativecommons.org/ns#"
   xmlns:rdf="http://www.w3.org/1999/02/22-rdf-syntax-ns#"
   xmlns:svg="http://www.w3.org/2000/svg"
   xmlns="http://www.w3.org/2000/svg"
   xmlns:sodipodi="http://sodipodi.sourceforge.net/DTD/sodipodi-0.dtd"
   xmlns:inkscape="http://www.inkscape.org/namespaces/inkscape"
   width="340"
   height="380"
   viewBox="0 0 340 380.00001"
   id="svg2"
   version="1.1"
   inkscape:version="0.91 r13725"
   inkscape:export-filename="/home/jan/Downloads/logo"
   inkscape:export-xdpi="300"
   inkscape:export-ydpi="300"
   sodipodi:docname="logo.svg">
  <defs
     id="defs4" />
  <sodipodi:namedview
     id="base"
     pagecolor="#ffffff"
     bordercolor="#666666"
     borderopacity="1.0"
     inkscape:pageopacity="0.0"
     inkscape:pageshadow="2"
     inkscape:zoom="0.87327348"
     inkscape:cx="453.24744"
     inkscape:cy="286.16305"
     inkscape:document-units="px"
     inkscape:current-layer="layer1"
     showgrid="false"
     units="px"
     inkscape:window-width="1869"
     inkscape:window-height="1056"
     inkscape:window-x="1971"
     inkscape:window-y="24"
     inkscape:window-maximized="1" />
  <metadata
     id="metadata7">
    <rdf:RDF>
      <cc:Work
         rdf:about="">
        <dc:format>image/svg+xml</dc:format>
        <dc:type
           rdf:resource="http://purl.org/dc/dcmitype/StillImage" />
        <dc:title></dc:title>
      </cc:Work>
    </rdf:RDF>
  </metadata>
  <g
     inkscape:label="Layer 1"
     inkscape:groupmode="layer"
     id="layer1"
     transform="translate(0,-672.36216)">
    <path
       style="fill:#00b608;fill-opacity:1;stroke:#9c0004;stroke-width:12.16716862;stroke-miterlimit:4;stroke-dasharray:none;stroke-opacity:1"
       d="m 133.52662,1044.9696 c -11.75,-2.0051 -30.70298,-7.4441 -41.374342,-11.8733 -29.095249,-12.0762 -50.439,-28.1317 -66.385691,-49.93749 -28.1330371,-38.46967 -26.11557659,-89.27201 5.207369,-131.12835 10.5726,-14.12798 22.660967,-26.15963 57.440687,-57.17115 32.827087,-29.27046 44.599277,-47.74112 44.599277,-69.9766 0,-12.69446 -4.92758,-27.93643 -13.47249,-41.67288 -2.35182,-3.7807 -2.64023,-4.76427 -1.3971,-4.76427 2.24683,0 28.20178,10.63376 41.7788,17.11678 98.76252,47.15912 158.2816,115.29194 171.51232,196.33397 4.98534,30.53666 2.58896,53.95398 -7.69658,75.2109 -18.86865,38.99549 -65.02021,69.32979 -118.67579,78.00269 -9.71199,1.5699 -12.90095,1.2017 -6.93539,-0.8007 16.08941,-5.4005 27.86072,-12.1469 36.47166,-20.9027 14.64511,-14.8915 20.05348,-32.39964 15.92069,-51.539 -3.62568,-16.79107 -10.73618,-25.87729 -36.07158,-46.09452 -9.70836,-7.74712 -19.24437,-16.13636 -21.19118,-18.64278 -10.6908,-13.76399 -11.68974,-29.14115 -3.22307,-49.61468 1.39082,-3.36318 2.273,-6.32156 1.96038,-6.57415 -1.57035,-1.2689 -31.46041,17.59307 -46.92056,29.60895 -34.84967,27.08575 -51.828365,54.05161 -56.297475,89.4125 -1.324272,10.478 -0.62781,23.46515 1.629237,30.38118 6.017846,18.44 25.146898,35.538 47.735188,42.667 10.69446,3.3752 8.68516,4.2281 -4.61436,1.9586 z"
       id="path4147"
       inkscape:connector-curvature="0" />
  </g>
</svg>
